<svg width="32" height="32" viewBox="0 0 32 32" fill="none" xmlns="http://www.w3.org/2000/svg">
<g id="CaretDown">
<path id="Vector" d="M5.29255 19.2926L15.2926 9.29255C15.3854 9.19958 15.4957 9.12582 15.6171 9.07549C15.7385 9.02517 15.8686 8.99927 16.0001 8.99927C16.1315 8.99927 16.2616 9.02517 16.383 9.07549C16.5044 9.12582 16.6147 9.19958 16.7076 9.29255L26.7076 19.2926C26.8952 19.4802 27.0006 19.7347 27.0006 20.0001C27.0006 20.2654 26.8952 20.5199 26.7076 20.7076C26.5199 20.8952 26.2654 21.0006 26.0001 21.0006C25.7347 21.0006 25.4802 20.8952 25.2926 20.7076L16.0001 11.4138L6.70755 20.7076C6.61464 20.8005 6.50434 20.8742 6.38295 20.9244C6.26156 20.9747 6.13145 21.0006 6.00005 21.0006C5.86866 21.0006 5.73855 20.9747 5.61716 20.9244C5.49576 20.8742 5.38546 20.8005 5.29255 20.7076C5.19964 20.6146 5.12594 20.5043 5.07566 20.3829C5.02538 20.2616 4.9995 20.1314 4.9995 20.0001C4.9995 19.8687 5.02538 19.7385 5.07566 19.6172C5.12594 19.4958 5.19964 19.3855 5.29255 19.2926Z" fill="black"/>
</g>
</svg>
